<svg width="100" height="100" viewBox="0 0 100 100" fill="none" xmlns="http://www.w3.org/2000/svg">
<g filter="url(#filter0_ii_1277_9420)">
<path d="M85.752 3.14725C86.5141 1.77615 88.486 1.77607 89.248 3.14725L99.748 22.0476C99.913 22.3446 99.9999 22.6786 100 23.0183V76.9822C100 77.3221 99.9131 77.6568 99.748 77.9539L89.248 96.8533C88.486 98.2249 86.514 98.2249 85.752 96.8533L76.748 80.6473C75.986 79.2762 74.0141 79.2763 73.252 80.6473L64.248 96.8533C63.486 98.2249 61.514 98.2249 60.752 96.8533L51.748 80.6473C50.986 79.2762 49.0141 79.2763 48.252 80.6473L39.248 96.8533C38.486 98.2249 36.514 98.2249 35.752 96.8533L26.748 80.6473C25.986 79.2762 24.0141 79.2763 23.252 80.6473L14.248 96.8533C13.486 98.2249 11.514 98.2249 10.752 96.8533L0.251953 77.9539C0.0868873 77.6568 0 77.3221 0 76.9822V23.0183C6.91516e-05 22.6786 0.0869532 22.3446 0.251953 22.0476L10.752 3.14725C11.5141 1.77615 13.486 1.77607 14.248 3.14725L23.252 19.3533C24.014 20.7249 25.986 20.7249 26.748 19.3533L35.752 3.14725C36.5141 1.77615 38.486 1.77607 39.248 3.14725L48.252 19.3533C49.014 20.7249 50.986 20.7249 51.748 19.3533L60.752 3.14725C61.5141 1.77615 63.486 1.77607 64.248 3.14725L73.252 19.3533C74.014 20.7249 75.986 20.7249 76.748 19.3533L85.752 3.14725Z" fill="#F38484"/>
<ellipse cx="39.5" cy="46.0005" rx="2.5" ry="4" fill="#2E302F"/>
<ellipse cx="60.5" cy="46.0005" rx="2.5" ry="4" fill="#2E302F"/>
<path d="M49.6971 62.7314C56.7883 62.7314 58.1456 65.1873 58.1456 66.2969C58.1456 67.4065 56.8483 65.1819 49.7571 65.1819C42.6658 65.1819 40.9915 67.8266 40.9915 66.717C40.9915 65.6074 42.6058 62.7314 49.6971 62.7314Z" fill="#2E302F"/>
<path d="M36.1803 38.5197C36.3089 38.2438 36.6495 38.1416 36.9099 38.2991C37.6234 38.7305 38.9779 39.528 39.9999 40.0005C40.9681 40.4481 42.3681 40.9417 43.1296 41.2004C43.418 41.2983 43.5592 41.6251 43.4305 41.9011C43.3263 42.1245 43.0773 42.2405 42.8405 42.1719C42.1058 41.9591 40.5437 41.4835 39.4999 41.0005C38.421 40.5013 37.0029 39.581 36.3529 39.1462C36.1478 39.009 36.076 38.7433 36.1803 38.5197Z" fill="#2E302F" fill-opacity="0.6"/>
<path d="M56.0651 41.9005C55.9365 41.6247 56.0771 41.2981 56.3652 41.1998C57.1542 40.9306 58.6358 40.4056 59.6547 39.9264C60.62 39.4724 61.898 38.7172 62.5856 38.3001C62.846 38.1422 63.1871 38.2441 63.3158 38.5201C63.42 38.7435 63.3487 39.0088 63.144 39.1461C62.5087 39.5721 61.1402 40.4631 60.0993 40.9522C59.0234 41.4578 57.4069 41.9526 56.656 42.1711C56.4191 42.24 56.1694 42.1242 56.0651 41.9005Z" fill="#2E302F" fill-opacity="0.6"/>
</g>
<defs>
<filter id="filter0_ii_1277_9420" x="-4" y="-5.99951" width="116" height="118" filterUnits="userSpaceOnUse" color-interpolation-filters="sRGB">
<feFlood flood-opacity="0" result="BackgroundImageFix"/>
<feBlend mode="normal" in="SourceGraphic" in2="BackgroundImageFix" result="shape"/>
<feColorMatrix in="SourceAlpha" type="matrix" values="0 0 0 0 0 0 0 0 0 0 0 0 0 0 0 0 0 0 127 0" result="hardAlpha"/>
<feOffset dx="-4" dy="-8"/>
<feGaussianBlur stdDeviation="3"/>
<feComposite in2="hardAlpha" operator="arithmetic" k2="-1" k3="1"/>
<feColorMatrix type="matrix" values="0 0 0 0 0 0 0 0 0 0 0 0 0 0 0 0 0 0 0.1 0"/>
<feBlend mode="normal" in2="shape" result="effect1_innerShadow_1277_9420"/>
<feColorMatrix in="SourceAlpha" type="matrix" values="0 0 0 0 0 0 0 0 0 0 0 0 0 0 0 0 0 0 127 0" result="hardAlpha"/>
<feOffset dx="12" dy="12"/>
<feGaussianBlur stdDeviation="8"/>
<feComposite in2="hardAlpha" operator="arithmetic" k2="-1" k3="1"/>
<feColorMatrix type="matrix" values="0 0 0 0 1 0 0 0 0 1 0 0 0 0 1 0 0 0 0.32 0"/>
<feBlend mode="normal" in2="effect1_innerShadow_1277_9420" result="effect2_innerShadow_1277_9420"/>
</filter>
</defs>
</svg>
