<svg width="71" height="60" viewBox="0 0 71 60" fill="none" xmlns="http://www.w3.org/2000/svg">
<path d="M43.9603 0.000244141C53.4382 0.000296292 61.1553 7.53404 61.4528 16.9397C65.4434 18.4781 68.6603 21.8511 69.8194 26.3059C71.6135 33.2008 67.841 40.2353 61.2958 42.6518C61.3152 42.8531 61.3325 43.0556 61.3439 43.2594C61.7953 51.3927 55.5676 58.3529 47.4343 58.8043C43.2451 59.0368 39.3674 57.4974 36.53 54.8381C34.4016 57.7748 31.0181 59.7642 27.1146 59.9809C21.0767 60.3161 15.8037 56.3007 14.344 50.6627C6.59809 49.1747 0.74561 42.3633 0.745605 34.1833C0.745605 28.7386 3.33871 23.9002 7.35674 20.8338C7.67233 11.2626 15.5294 3.60038 25.1774 3.60024C27.5298 3.60024 29.7757 4.05643 31.8319 4.88403C34.9778 1.8598 39.2519 0.000244141 43.9603 0.000244141Z" fill="#F0F3FA"/>
<ellipse cx="28.4608" cy="27.1515" rx="1.4708" ry="3.23576" fill="#2E302F"/>
<ellipse cx="42.5252" cy="27.1515" rx="1.4708" ry="3.23576" fill="#2E302F"/>
<path d="M35.2749 40.1066C31.0215 40.0024 30.1294 39.0656 30.1457 38.4C30.162 37.7344 31.0215 38.5317 35.2749 38.6359C39.5284 38.74 40.662 37.7344 40.6457 38.4C40.6294 39.0656 39.5284 40.2108 35.2749 40.1066Z" fill="#2E302F"/>
<ellipse cx="24.4162" cy="34.2115" rx="2.5739" ry="1.28695" fill="#F5B0DC"/>
<ellipse cx="46.2941" cy="34.2115" rx="2.5739" ry="1.28695" fill="#F5B0DC"/>
</svg>
