<svg width="117" height="100" viewBox="0 0 117 100" fill="none" xmlns="http://www.w3.org/2000/svg">
<path d="M72.1387 0.000244141C87.9352 0.00033106 100.797 12.5566 101.293 28.2327C107.944 30.7967 113.305 36.4183 115.237 43.843C118.227 55.3345 111.94 67.0586 101.031 71.0862C101.064 71.4217 101.092 71.7592 101.111 72.0989C101.864 85.6544 91.4842 97.2546 77.9287 98.0071C70.9468 98.3945 64.4839 95.8288 59.7549 91.3967C56.2075 96.2912 50.5684 99.6068 44.0625 99.968C33.9994 100.527 25.211 93.8343 22.7783 84.4377C9.8684 81.9577 0.114265 70.6053 0.114258 56.9719C0.114258 47.8976 4.4361 39.8335 11.1328 34.7229C11.6588 18.7708 24.7539 6.00047 40.834 6.00024C44.7546 6.00024 48.4978 6.76055 51.9248 8.13989C57.1679 3.09951 64.2914 0.000244141 72.1387 0.000244141Z" fill="#F0F3FA"/>
<ellipse cx="46.3058" cy="45.2526" rx="2.45133" ry="5.39293" fill="#2E302F"/>
<ellipse cx="69.7467" cy="45.2526" rx="2.45133" ry="5.39293" fill="#2E302F"/>
<path d="M57.6628 66.8442C50.5737 66.6705 49.087 65.1091 49.1141 63.9999C49.1413 62.8906 50.5737 64.2193 57.6628 64.3929C64.752 64.5666 66.6413 62.8906 66.6141 63.9999C66.5869 65.1091 64.752 67.0178 57.6628 66.8442Z" fill="#2E302F"/>
<ellipse cx="39.5647" cy="57.0192" rx="4.28983" ry="2.14492" fill="#F5B0DC"/>
<ellipse cx="76.0284" cy="57.0192" rx="4.28983" ry="2.14492" fill="#F5B0DC"/>
</svg>
