<svg width="54" height="47" viewBox="0 0 54 47" fill="none" xmlns="http://www.w3.org/2000/svg">
<g filter="url(#filter0_d_1712_3301)">
<g filter="url(#filter1_ii_1712_3301)">
<path d="M30.8247 2C37.1444 2 42.2901 7.02401 42.4868 13.2959C45.1466 14.3217 47.2913 16.5678 48.064 19.5371C49.2601 24.134 46.7444 28.8229 42.3804 30.4336C42.3933 30.5681 42.406 30.7037 42.4136 30.8398C42.7143 36.2618 38.5631 40.9021 33.1411 41.2031C30.3476 41.3582 27.7634 40.3293 25.8716 38.5557C24.4527 40.5146 22.1975 41.8428 19.5942 41.9873C15.5684 42.2108 12.052 39.533 11.0796 35.7734C5.91645 34.7809 2.01531 30.2417 2.01514 24.7891C2.01514 21.1597 3.74417 17.9349 6.42236 15.8906C6.63196 9.50903 11.8706 4.40039 18.3032 4.40039C19.872 4.4004 21.3686 4.70671 22.7397 5.25879C24.8371 3.2419 27.6852 2.00003 30.8247 2Z" fill="#94B7FA"/>
</g>
<ellipse cx="21" cy="20.3998" rx="1" ry="1.6" fill="#2E302F"/>
<ellipse cx="29.3999" cy="20.3998" rx="1" ry="1.6" fill="#2E302F"/>
<path d="M25.0789 27.0918C27.9154 27.0918 28.4584 28.0741 28.4584 28.518C28.4584 28.9618 27.9394 28.072 25.1029 28.072C22.2664 28.072 21.5967 29.1299 21.5967 28.686C21.5967 28.2422 22.2424 27.0918 25.0789 27.0918Z" fill="#2E302F"/>
<path d="M19.672 17.4074C19.7234 17.297 19.8596 17.2562 19.9638 17.3192C20.2492 17.4917 20.791 17.8107 21.1998 17.9997C21.5871 18.1788 22.1471 18.3762 22.4517 18.4797C22.567 18.5188 22.6235 18.6496 22.572 18.76C22.5304 18.8493 22.4308 18.8957 22.336 18.8683C22.0422 18.7832 21.4173 18.5929 20.9998 18.3997C20.5683 18.2 20.001 17.8319 19.741 17.658C19.6589 17.6031 19.6302 17.4969 19.672 17.4074Z" fill="#2E302F" fill-opacity="0.6"/>
<path d="M27.6261 18.7599C27.5747 18.6496 27.6309 18.519 27.7462 18.4796C28.0618 18.3719 28.6544 18.1619 29.062 17.9703C29.4481 17.7887 29.9593 17.4866 30.2343 17.3198C30.3385 17.2566 30.4749 17.2973 30.5264 17.4077C30.5681 17.4971 30.5396 17.6032 30.4577 17.6581C30.2036 17.8286 29.6562 18.1849 29.2398 18.3806C28.8095 18.5828 28.1629 18.7807 27.8625 18.8681C27.7677 18.8957 27.6679 18.8494 27.6261 18.7599Z" fill="#2E302F" fill-opacity="0.6"/>
</g>
<defs>
<filter id="filter0_d_1712_3301" x="0.4" y="0.4" width="52.7997" height="46.4005" filterUnits="userSpaceOnUse" color-interpolation-filters="sRGB">
<feFlood flood-opacity="0" result="BackgroundImageFix"/>
<feColorMatrix in="SourceAlpha" type="matrix" values="0 0 0 0 0 0 0 0 0 0 0 0 0 0 0 0 0 0 127 0" result="hardAlpha"/>
<feOffset dx="1.6" dy="1.6"/>
<feGaussianBlur stdDeviation="1.6"/>
<feComposite in2="hardAlpha" operator="out"/>
<feColorMatrix type="matrix" values="0 0 0 0 0 0 0 0 0 0 0 0 0 0 0 0 0 0 0.08 0"/>
<feBlend mode="normal" in2="BackgroundImageFix" result="effect1_dropShadow_1712_3301"/>
<feBlend mode="normal" in="SourceGraphic" in2="effect1_dropShadow_1712_3301" result="shape"/>
</filter>
<filter id="filter1_ii_1712_3301" x="0.415137" y="-1.2" width="52.7462" height="48.0005" filterUnits="userSpaceOnUse" color-interpolation-filters="sRGB">
<feFlood flood-opacity="0" result="BackgroundImageFix"/>
<feBlend mode="normal" in="SourceGraphic" in2="BackgroundImageFix" result="shape"/>
<feColorMatrix in="SourceAlpha" type="matrix" values="0 0 0 0 0 0 0 0 0 0 0 0 0 0 0 0 0 0 127 0" result="hardAlpha"/>
<feOffset dx="-1.6" dy="-3.2"/>
<feGaussianBlur stdDeviation="2.4"/>
<feComposite in2="hardAlpha" operator="arithmetic" k2="-1" k3="1"/>
<feColorMatrix type="matrix" values="0 0 0 0 0 0 0 0 0 0 0 0 0 0 0 0 0 0 0.1 0"/>
<feBlend mode="normal" in2="shape" result="effect1_innerShadow_1712_3301"/>
<feColorMatrix in="SourceAlpha" type="matrix" values="0 0 0 0 0 0 0 0 0 0 0 0 0 0 0 0 0 0 127 0" result="hardAlpha"/>
<feOffset dx="4.8" dy="4.8"/>
<feGaussianBlur stdDeviation="4"/>
<feComposite in2="hardAlpha" operator="arithmetic" k2="-1" k3="1"/>
<feColorMatrix type="matrix" values="0 0 0 0 1 0 0 0 0 1 0 0 0 0 1 0 0 0 0.32 0"/>
<feBlend mode="normal" in2="effect1_innerShadow_1712_3301" result="effect2_innerShadow_1712_3301"/>
</filter>
</defs>
</svg>
