<svg width="116" height="116" viewBox="0 0 116 116" fill="none" xmlns="http://www.w3.org/2000/svg">
<g filter="url(#filter0_dii_814_3165)">
<g filter="url(#filter1_ii_814_3165)">
<path d="M31.256 6.40507C32.1469 4.44061 34.4087 3.50376 36.4277 4.26287L52.5585 10.3277C53.4878 10.677 54.5122 10.677 55.4415 10.3277L71.5723 4.26287C73.5913 3.50376 75.8531 4.44061 76.744 6.40507L83.8617 22.0997C84.2718 23.0038 84.9962 23.7282 85.9003 24.1383L101.595 31.256C103.559 32.1469 104.496 34.4087 103.737 36.4277L97.6723 52.5585C97.323 53.4878 97.323 54.5122 97.6723 55.4415L103.737 71.5723C104.496 73.5913 103.559 75.8531 101.595 76.744L85.9003 83.8617C84.9962 84.2718 84.2718 84.9962 83.8617 85.9003L76.744 101.595C75.8531 103.559 73.5913 104.496 71.5723 103.737L55.4415 97.6723C54.5122 97.323 53.4878 97.323 52.5585 97.6723L36.4277 103.737C34.4087 104.496 32.1469 103.559 31.256 101.595L24.1383 85.9003C23.7282 84.9962 23.0038 84.2718 22.0997 83.8617L6.40507 76.744C4.44061 75.8531 3.50376 73.5913 4.26287 71.5723L10.3277 55.4415C10.677 54.5122 10.677 53.4878 10.3277 52.5585L4.26287 36.4277C3.50376 34.4087 4.44061 32.1469 6.40507 31.256L22.0997 24.1383C23.0038 23.7282 23.7282 23.0038 24.1383 22.0997L31.256 6.40507Z" fill="#F7B069"/>
</g>
<path d="M53.5 74.9971C46.4109 74.8234 45.0021 70.8198 45.0292 69.7105C45.0564 68.6012 46.4109 69.8234 53.5 69.9971C60.5891 70.1707 62.2157 68.6012 62.1886 69.7105C62.1614 70.8198 60.5891 75.1707 53.5 74.9971Z" fill="#2E302F"/>
<ellipse cx="35.2898" cy="59.6566" rx="4.28983" ry="2.14492" fill="#F077B4"/>
<ellipse cx="71.7533" cy="59.6564" rx="4.28983" ry="2.14492" fill="#F077B4"/>
<path d="M39 53.0491C39 52.9487 39.0191 52.8505 39.0655 52.7615C39.3303 52.2543 40.433 50.4971 43 50.4971C45.567 50.4971 46.6697 52.2543 46.9345 52.7615C46.9809 52.8505 47 52.9487 47 53.0491C47 53.6616 46.2978 54.0433 45.7545 53.7605C44.9475 53.3405 43.8857 52.8971 43 52.8971C42.1143 52.8971 41.0525 53.3405 40.2455 53.7605C39.7022 54.0433 39 53.6616 39 53.0491Z" fill="#2E302F"/>
<path d="M60 53.0491C60 52.9487 60.0191 52.8505 60.0655 52.7615C60.3303 52.2543 61.433 50.4971 64 50.4971C66.567 50.4971 67.6697 52.2543 67.9345 52.7615C67.9809 52.8505 68 52.9487 68 53.0491C68 53.6616 67.2978 54.0433 66.7545 53.7605C65.9475 53.3405 64.8857 52.8971 64 52.8971C63.1143 52.8971 62.0525 53.3405 61.2455 53.7605C60.7022 54.0433 60 53.6616 60 53.0491Z" fill="#2E302F"/>
<path d="M69.8492 46.548C69.7597 46.8822 69.3586 47.0238 69.0726 46.8291C68.3265 46.3213 67.0129 45.4981 65.9703 45.2224C64.9879 44.9626 63.5337 45.0271 62.6655 45.1C62.317 45.1293 62.0345 44.8035 62.125 44.4657C62.1677 44.3063 62.2867 44.1797 62.4461 44.1369C63.0727 43.9687 64.7587 43.6006 66.2946 44.0121C67.8342 44.4247 69.2229 45.6206 69.7234 46.0893C69.8486 46.2065 69.8936 46.3823 69.8492 46.548Z" fill="#2E302F" fill-opacity="0.6"/>
<path d="M45.0579 44.4774C45.1474 44.8116 44.8709 45.1348 44.5258 45.1092C43.6258 45.0425 42.0766 44.9863 41.0358 45.2689C40.0551 45.5351 38.828 46.318 38.1126 46.8153C37.8254 47.0149 37.4178 46.874 37.3273 46.5363C37.2846 46.3769 37.3244 46.2077 37.441 46.091C37.8996 45.632 39.1756 44.4702 40.7115 44.0586C42.2511 43.6461 44.0517 43.9874 44.7195 44.1431C44.8866 44.182 45.0135 44.3117 45.0579 44.4774Z" fill="#2E302F" fill-opacity="0.6"/>
</g>
<defs>
<filter id="filter0_dii_814_3165" x="-0.461792" y="-4" width="116.462" height="120" filterUnits="userSpaceOnUse" color-interpolation-filters="sRGB">
<feFlood flood-opacity="0" result="BackgroundImageFix"/>
<feColorMatrix in="SourceAlpha" type="matrix" values="0 0 0 0 0 0 0 0 0 0 0 0 0 0 0 0 0 0 127 0" result="hardAlpha"/>
<feOffset dx="4" dy="4"/>
<feGaussianBlur stdDeviation="4"/>
<feComposite in2="hardAlpha" operator="out"/>
<feColorMatrix type="matrix" values="0 0 0 0 0 0 0 0 0 0 0 0 0 0 0 0 0 0 0.08 0"/>
<feBlend mode="normal" in2="BackgroundImageFix" result="effect1_dropShadow_814_3165"/>
<feBlend mode="normal" in="SourceGraphic" in2="effect1_dropShadow_814_3165" result="shape"/>
<feColorMatrix in="SourceAlpha" type="matrix" values="0 0 0 0 0 0 0 0 0 0 0 0 0 0 0 0 0 0 127 0" result="hardAlpha"/>
<feOffset dx="-4" dy="-8"/>
<feGaussianBlur stdDeviation="6"/>
<feComposite in2="hardAlpha" operator="arithmetic" k2="-1" k3="1"/>
<feColorMatrix type="matrix" values="0 0 0 0 0 0 0 0 0 0 0 0 0 0 0 0 0 0 0.1 0"/>
<feBlend mode="normal" in2="shape" result="effect2_innerShadow_814_3165"/>
<feColorMatrix in="SourceAlpha" type="matrix" values="0 0 0 0 0 0 0 0 0 0 0 0 0 0 0 0 0 0 127 0" result="hardAlpha"/>
<feOffset dx="12" dy="12"/>
<feGaussianBlur stdDeviation="10"/>
<feComposite in2="hardAlpha" operator="arithmetic" k2="-1" k3="1"/>
<feColorMatrix type="matrix" values="0 0 0 0 1 0 0 0 0 1 0 0 0 0 1 0 0 0 0.24 0"/>
<feBlend mode="normal" in2="effect2_innerShadow_814_3165" result="effect3_innerShadow_814_3165"/>
</filter>
<filter id="filter1_ii_814_3165" x="0" y="0" width="108" height="108" filterUnits="userSpaceOnUse" color-interpolation-filters="sRGB">
<feFlood flood-opacity="0" result="BackgroundImageFix"/>
<feBlend mode="normal" in="SourceGraphic" in2="BackgroundImageFix" result="shape"/>
<feColorMatrix in="SourceAlpha" type="matrix" values="0 0 0 0 0 0 0 0 0 0 0 0 0 0 0 0 0 0 127 0" result="hardAlpha"/>
<feOffset dx="4" dy="4"/>
<feGaussianBlur stdDeviation="2"/>
<feComposite in2="hardAlpha" operator="arithmetic" k2="-1" k3="1"/>
<feColorMatrix type="matrix" values="0 0 0 0 1 0 0 0 0 1 0 0 0 0 1 0 0 0 0.32 0"/>
<feBlend mode="normal" in2="shape" result="effect1_innerShadow_814_3165"/>
<feColorMatrix in="SourceAlpha" type="matrix" values="0 0 0 0 0 0 0 0 0 0 0 0 0 0 0 0 0 0 127 0" result="hardAlpha"/>
<feOffset dx="-4" dy="-4"/>
<feGaussianBlur stdDeviation="2"/>
<feComposite in2="hardAlpha" operator="arithmetic" k2="-1" k3="1"/>
<feColorMatrix type="matrix" values="0 0 0 0 0 0 0 0 0 0 0 0 0 0 0 0 0 0 0.12 0"/>
<feBlend mode="normal" in2="effect1_innerShadow_814_3165" result="effect2_innerShadow_814_3165"/>
</filter>
</defs>
</svg>
